<svg xmlns="http://www.w3.org/2000/svg" viewBox="0 0 500 500"><g id="freepik--background-simple--inject-6"><path d="M403.82,83.47l-1-3.23C394.82,53,372.81,32,345.2,26.58a73.53,73.53,0,0,0-10.77-1.33C308.34,24,281.92,37,266.69,58.56,257.74,71.24,252,87,239.1,95.58c-16.77,11.1-38.85,5.75-58,0s-41.25-11-58,.17c-10.48,7-16.47,19.32-19.06,31.72-6.84,32.84,8.07,67.77,33,89.75s58.35,32.21,91.43,34.18c46.35,2.76,94.63-10.53,129.73-41.5S413.2,129.4,403.82,83.47Z" style="fill:#f5f5f5"></path></g><g id="freepik--Floor--inject-6"><path d="M483,477.29c0,.15-102,.26-227.7.26s-227.73-.11-227.73-.26S129.55,477,255.34,477,483,477.15,483,477.29Z" style="fill:#263238"></path></g><g id="freepik--character-3--inject-6"><path d="M429.94,339.09l-30.5-1.27-1.78,4.1-34,19.9-1.88,2.23a15.18,15.18,0,0,0-1.17,16.49c3.37,6.36,40.29,42,40.29,42l13-10.64-21-30.69,10.06-8.35,37.21-4.5c8.11-1,9.07-13.85,9.07-13.85Z" style="fill:#263238"></path><path d="M399.23,420.88l.77.84s-8.9,18.74-6.57,21.56l27.94-26.08-9.06-8.94A21.84,21.84,0,0,1,399.23,420.88Z" style="fill:#003366"></path><path d="M421.37,417.2l-2.17-2.15-26,25.78s-.74,1.71.22,2.45Z" style="fill:#e0e0e0"></path><path d="M403.33,424.87s-.09-.3-.42-.62a3.74,3.74,0,0,0-1.57-.87,3.68,3.68,0,0,0-1.79-.06c-.45.1-.69.26-.68.31a9,9,0,0,1,2.36.14A9.08,9.08,0,0,1,403.33,424.87Z" style="fill:#263238"></path><path d="M404.5,423.18a4.11,4.11,0,0,0-4.55-1.26,22.15,22.15,0,0,1,2.36.3A19.17,19.17,0,0,1,404.5,423.18Z" style="fill:#263238"></path><path d="M401.79,427.55c.1,0-.3-1-1.31-1.61a2.56,2.56,0,0,0-2-.49c0,.12.89.25,1.8.84S401.69,427.61,401.79,427.55Z" style="fill:#263238"></path><path d="M399.06,423.94a2.22,2.22,0,0,0-.41-1.36,8,8,0,0,0-.91-1.25l-.62-.66a3.34,3.34,0,0,0-.38-.34.74.74,0,0,0-.64-.11.57.57,0,0,0-.37.59,1.22,1.22,0,0,0,.16.53,4.41,4.41,0,0,0,.52.78,4.67,4.67,0,0,0,1.18,1,2.31,2.31,0,0,0,1.35.46c0-.06-.5-.21-1.19-.7a5.24,5.24,0,0,1-1.05-1,4.63,4.63,0,0,1-.45-.72c-.14-.25-.15-.54,0-.55s.38.11.6.35l.63.63a9.35,9.35,0,0,1,.94,1.14C398.88,423.43,399,424,399.06,423.94Z" style="fill:#263238"></path><path d="M398.79,424s.09,0,.24,0l.12,0-.11-.07a4.74,4.74,0,0,0-1.5-.6,5.92,5.92,0,0,0-1.26-.14,5.85,5.85,0,0,0-.71,0,1,1,0,0,0-.41.11.62.62,0,0,0-.34.41.55.55,0,0,0,.32.59,1.79,1.79,0,0,0,.48.14,5.4,5.4,0,0,0,.87.1,4.81,4.81,0,0,0,1.45-.19,2.44,2.44,0,0,0,1.19-.59c0-.06-.49.16-1.26.31a5.8,5.8,0,0,1-1.37.09,5.89,5.89,0,0,1-.8-.11c-.29,0-.53-.18-.48-.25,0-.24.68-.24,1.07-.26a7.4,7.4,0,0,1,1.19.07,9.39,9.39,0,0,1,1.5.39v-.11C398.85,424,398.79,424,398.79,424Z" style="fill:#263238"></path><path d="M485.16,255.16c-.13-.85-1.1-1.23-1.86-1.62-2.91-1.51-4.15-5-4.61-8.24-.65-4.54-.28-9.21-1.22-13.7s-3.66-9.07-8.08-10.3c-3.71-1-7.84.63-10.3,3.58l-3.71,11.3a33.42,33.42,0,0,0,9.44,23.25c2.05,2.1,4.63,4,7.57,4.06a3.76,3.76,0,0,0,2.82-1c1.23-1.3.79-3.39.27-5.11a14.25,14.25,0,0,0,7.82-.26C484.24,256.82,485.32,256.13,485.16,255.16Z" style="fill:#263238"></path><path d="M455.64,224.06a2.48,2.48,0,0,1,2.89-.17,5.64,5.64,0,0,1,2,2.33,16.38,16.38,0,0,1,1.82,9.17,7.61,7.61,0,0,1-2,4.83c-.86.82-2.31,1.27-3.21.5s-.72-2.06-.57-3.17a30.41,30.41,0,0,0-1.25-13.33" style="fill:#003366"></path><path d="M454.5,220.75c-5.21-7.54-18.3-12.75-27.67-8.64-6.66-1-17,1-23.26,8.15,1.88.08,3-.57,4.92-.49-7.28,4.74-6.52,20.08-1.44,28.62l35.27,15.4c6.72-2.63,11.54-8.88,14-15.67C459.37,239.48,459.71,228.29,454.5,220.75Z" style="fill:#263238"></path><path d="M409,228.36c1.41-7.4,10.38-13.83,17.71-12.11l14.4,4.66a11.26,11.26,0,0,1,7.66,12.42l-1.26,8.15-5.61,35.86h0s-4.08,15.76-17.49,13.14c-12-2.35-9.75-15.09-9.75-15.1l1.55-9.32s-9.76-1.62-10.17-14.3C405.87,245.46,407.47,236.57,409,228.36Z" style="fill:#ffbf9d"></path><path d="M410.84,239.38a1.61,1.61,0,0,0,1.33,1.8A1.54,1.54,0,0,0,414,240a1.61,1.61,0,0,0-1.33-1.81A1.54,1.54,0,0,0,410.84,239.38Z" style="fill:#263238"></path><path d="M411.15,235.74c.13.2,1.43.22,3,.95s2.52,1.74,2.73,1.7,0-.3-.4-.75a6.9,6.9,0,0,0-2.14-1.51,6,6,0,0,0-2.44-.61C411.32,235.52,411.08,235.65,411.15,235.74Z" style="fill:#263238"></path><path d="M426,241.66a1.59,1.59,0,0,0,1.33,1.8,1.53,1.53,0,0,0,1.82-1.23,1.61,1.61,0,0,0-1.33-1.8A1.53,1.53,0,0,0,426,241.66Z" style="fill:#263238"></path><path d="M426.87,238.63c.25.08,1.46-.68,3.35-1s3.4-.05,3.58-.21-.18-.26-.85-.39a8.24,8.24,0,0,0-2.9,0,7.22,7.22,0,0,0-2.63,1C426.9,238.33,426.75,238.59,426.87,238.63Z" style="fill:#263238"></path><path d="M419.6,248.2a14.73,14.73,0,0,0-2.73-.76c-.44-.1-.84-.22-.89-.46s.15-.6.4-1l1.58-2.4a69.34,69.34,0,0,0,3.66-6.33c-.18-.08-2.12,2.62-4.33,6l-1.53,2.42a1.53,1.53,0,0,0-.37,1.29,1.12,1.12,0,0,0,.66.6,4.28,4.28,0,0,0,.73.18A13.57,13.57,0,0,0,419.6,248.2Z" style="fill:#263238"></path><path d="M416.15,266.13a31.85,31.85,0,0,0,17.2-2.35s-5.34,8.14-17.63,5.42Z" style="fill:#ff9a6c"></path><path d="M427.43,231.85c.13.55,1.66.34,3.43.69s3.19,1,3.44.56c.11-.23-.12-.76-.68-1.31a4.94,4.94,0,0,0-2.52-1.28,4.5,4.5,0,0,0-2.72.33C427.72,231.16,427.37,231.58,427.43,231.85Z" style="fill:#263238"></path><path d="M411.08,229.34c.22.52,1.54.29,3,.57s2.66.85,3,.43c.18-.2.07-.7-.39-1.24a4,4,0,0,0-4.88-.81C411.25,228.66,411,229.09,411.08,229.34Z" style="fill:#263238"></path><path d="M424.47,250.19a6.92,6.92,0,0,1,.26,3.52,2.9,2.9,0,0,1-2,2,3.23,3.23,0,0,1-2.93-.94,9.62,9.62,0,0,1-1.75-2.68C420.06,251.51,422.51,250.81,424.47,250.19Z" style="fill:#ff9a6c"></path><path d="M420.58,256a5.48,5.48,0,0,0,2.15-.4A3.65,3.65,0,0,0,424.4,254a3.65,3.65,0,0,0-.28-3.79l.25.1c-3.57.79-6.13,1.95-6.18,1.82a6.07,6.07,0,0,1,1.65-.87,26.77,26.77,0,0,1,4.42-1.43l.15,0,.1.13a3.86,3.86,0,0,1,.6,1.2,4,4,0,0,1-.31,3.1,3.77,3.77,0,0,1-1.93,1.66A2.85,2.85,0,0,1,420.58,256Z" style="fill:#263238"></path><path d="M447.32,220.35a16.07,16.07,0,0,0-6.13-3.79,38,38,0,0,0-15.93-2.46l-3.39-1c1.12,5.62,7.48,14.49,12.77,16.69,1.68.69,3.53,1.17,4.81,2.46a7.92,7.92,0,0,1,1.86,5.44,52.39,52.39,0,0,0,.06,5.88,3.84,3.84,0,0,0,1,2.3,2.87,2.87,0,0,0,3,.41,5.25,5.25,0,0,0,2.31-2.14,17.72,17.72,0,0,0,2-6.41,39.44,39.44,0,0,0,.85-9.05A13.42,13.42,0,0,0,447.32,220.35Z" style="fill:#263238"></path><path d="M445.32,241.53c.2-.06,7.92-1.24,6.67,6.31s-8.57,4.73-8.55,4.52S445.32,241.53,445.32,241.53Z" style="fill:#ffbf9d"></path><path d="M446.22,249.88s.11.11.32.25a1.27,1.27,0,0,0,1,.18c.85-.16,1.73-1.31,2-2.67a4.34,4.34,0,0,0-.06-1.94,1.52,1.52,0,0,0-.82-1.17.66.66,0,0,0-.83.23c-.14.19-.12.35-.16.36s-.14-.16,0-.46a.88.88,0,0,1,.38-.42,1,1,0,0,1,.76-.07,1.88,1.88,0,0,1,1.18,1.4,4.49,4.49,0,0,1,.1,2.17c-.3,1.52-1.31,2.81-2.46,2.95a1.46,1.46,0,0,1-1.17-.4C446.2,250.06,446.19,249.89,446.22,249.88Z" style="fill:#ff9a6c"></path><path d="M447.82,237.64a13.35,13.35,0,0,0,2.34-1.13,8.92,8.92,0,0,0,2.22-2,8.61,8.61,0,0,0,1.66-3.55l.27.21a9,9,0,0,1-5.11.86l-.45-.06.33-.32a7,7,0,0,0,2-5.09l.32.22a20.36,20.36,0,0,1-6,1.15,20.74,20.74,0,0,1-10.2-2.23,20.62,20.62,0,0,1-9.5-10.41c-.24-.64-.41-1.14-.5-1.49a2.73,2.73,0,0,1-.13-.53c.05,0,.27.7.81,1.94a21.34,21.34,0,0,0,3,4.83,20.36,20.36,0,0,0,22.39,6.29l.32-.11v.33a7.43,7.43,0,0,1-2.2,5.42l-.13-.38a8.64,8.64,0,0,0,4.88-.76l.36-.18-.09.38a8.81,8.81,0,0,1-1.79,3.68,9.2,9.2,0,0,1-2.34,2,8.9,8.9,0,0,1-1.79.81A2.49,2.49,0,0,1,447.82,237.64Z" style="fill:#455a64"></path><path d="M404,226.67a2.13,2.13,0,0,1,.07-.61,11.78,11.78,0,0,1,4.19-6.63l.16.38-4.59.84-.68.13.46-.52a24,24,0,0,1,14.72-7.94,22.05,22.05,0,0,1,3.78-.2,6.55,6.55,0,0,1,1.39.15,39.65,39.65,0,0,0-5.12.4,25.27,25.27,0,0,0-11.2,4.89,25.86,25.86,0,0,0-3.21,3l-.23-.39,4.61-.79.83-.14-.66.52a12.48,12.48,0,0,0-3.71,4.73C404.18,225.84,404,226.68,404,226.67Z" style="fill:#455a64"></path><path d="M433.06,244a8.8,8.8,0,0,0-4.44.75,2.64,2.64,0,0,0-1.66,1.71,1.9,1.9,0,0,0,.54,1.56,3.88,3.88,0,0,0,1.44.91,5.07,5.07,0,0,0,3.49.21c1.12-.4,2.5-1.46,2.46-2.65a2.62,2.62,0,0,0-1.83-2.49" style="fill:#ffb089"></path><path d="M412.4,244a5.4,5.4,0,0,0-3.46.58,2.14,2.14,0,0,0-1.24,1.63,2.34,2.34,0,0,0,.48,1.58,3.47,3.47,0,0,0,1.16,1,3.29,3.29,0,0,0,2.76.34,2.76,2.76,0,0,0,.3-5.08" style="fill:#ffb089"></path><path d="M449.36,357.63c.67-4.46,0-21.83,0-31.3,0-7,.66-16.29.65-21.8s-.38-13.66-.38-13.66-.4-8.34-5.21-13.29c-2.09-2.14-6.23-3.27-9.64-4.27-2.95-.86-11.56-2.23-23.6-1.09l-.76,9.42a86.75,86.75,0,0,1-3.82,11.69c-1.43,3-7.31,32.23-6.64,35.73s-.07,4.84-.07,4.84-2.59,4.51-2.25,8c0,0,22.59,9.34,26.17,10.62C431.24,355.18,449.36,357.63,449.36,357.63Z" style="fill:#e0e0e0"></path><path d="M332.26,236l11,4.94s8-.14,8.95,1.16,3.18,3.93,3.18,3.93,25.45,11.5,31.37,15.2,9.67,6.14,15.26,7.84,15.54,1.23,22.29,4.44,14.13,15.13,8.39,19.08-23.32-2.29-31.35-6.13-32.82-19.18-37.28-22.1S350.28,254,350.28,254s-7.49,1-8.43-.7-1.88-2-1.88-2-.8-1.28-.32-2a3.11,3.11,0,0,0,.41-1.71s-3.56-2.41-2.79-3.88l.77-1.46s-4-2.46-6-3.89C331.2,237.74,331.54,235.94,332.26,236Z" style="fill:#ffbf9d"></path><path d="M332.26,236a.55.55,0,0,0-.49.35,1.71,1.71,0,0,0,.15,1.76c1.33,1,3.49,2.27,6.17,4l.08.05,0,.08c-.36.87-1.33,1.81-.53,2.78a9.51,9.51,0,0,0,2.54,2.42l.05,0v.06a3.19,3.19,0,0,1-.47,1.87,2.18,2.18,0,0,0,.37,1.77l-.07-.06a4.61,4.61,0,0,1,1.88,1.93,1.56,1.56,0,0,0,1,.71,7.28,7.28,0,0,0,1.36.25,30.65,30.65,0,0,0,6-.22h.07l.06,0c2.21,1.75,4.56,3.6,7.07,5.5s5.13,3.89,8.05,5.7c5.82,3.67,12.18,7.56,19,11.61,3.39,2,6.9,4.09,10.53,6.13a83.79,83.79,0,0,0,11.44,5.62,91.63,91.63,0,0,0,12.62,4.07,42.65,42.65,0,0,0,6.68,1.07,19.28,19.28,0,0,0,3.4-.05,7.83,7.83,0,0,0,3.19-1,4.33,4.33,0,0,0,2-2.82,7.94,7.94,0,0,0-.17-3.59,19.19,19.19,0,0,0-3.29-6.48,21.53,21.53,0,0,0-5.15-5,15,15,0,0,0-3.16-1.56,27.07,27.07,0,0,0-3.37-1c-4.56-1.08-9.18-1.3-13.63-2a28.19,28.19,0,0,1-6.42-1.75,42.84,42.84,0,0,1-5.82-2.81c-3.69-2.07-7-4.47-10.5-6.2s-6.86-3.45-10.08-5c-6.47-3.09-12.34-5.81-17.45-8.14l0,0,0,0L352.69,243l-.6-.75a1.86,1.86,0,0,0-.74-.42,9.89,9.89,0,0,0-1.74-.39,48.75,48.75,0,0,0-6.36-.33h-.05l-8.15-3.72-2.09-1c-.47-.22-.7-.35-.7-.35l.72.3,2.11.91,8.2,3.63h-.05a47.2,47.2,0,0,1,6.4.29,9.8,9.8,0,0,1,1.8.38,2.09,2.09,0,0,1,.88.51l.61.75c.81,1,1.67,2.07,2.57,3.17l-.06,0c5.13,2.31,11,5,17.49,8.07,3.24,1.54,6.63,3.17,10.11,5s6.87,4.14,10.53,6.19a44.32,44.32,0,0,0,5.76,2.77,28,28,0,0,0,6.33,1.71c4.41.67,9,.89,13.66,2a26.53,26.53,0,0,1,3.44,1c.56.19,1.11.46,1.67.69a16.72,16.72,0,0,1,1.59.91,21.85,21.85,0,0,1,5.28,5.1,19.33,19.33,0,0,1,3.38,6.66,8.25,8.25,0,0,1,.17,3.83A4.86,4.86,0,0,1,432.6,293a8.32,8.32,0,0,1-3.4,1,18.53,18.53,0,0,1-3.49.05,42.27,42.27,0,0,1-6.77-1.08,90.89,90.89,0,0,1-12.69-4.1,85.9,85.9,0,0,1-11.5-5.66c-3.63-2.05-7.13-4.12-10.52-6.15-6.78-4.07-13.13-8-19-11.66-2.93-1.84-5.55-3.86-8.06-5.76s-4.84-3.76-7.05-5.53l.13,0a30.5,30.5,0,0,1-6.07.2,7.54,7.54,0,0,1-1.43-.28,1.86,1.86,0,0,1-1.16-.85,4.48,4.48,0,0,0-1.71-1.81l-.06,0,0,0a3.93,3.93,0,0,1-.41-1,1.52,1.52,0,0,1,0-1.07,3,3,0,0,0,.46-1.73l.05.1a9.85,9.85,0,0,1-2.59-2.51,2.31,2.31,0,0,1-.33-.81,1.63,1.63,0,0,1,0-.44,1.76,1.76,0,0,1,.16-.39c.24-.47.48-.92.71-1.35l0,.13c-2.69-1.8-4.8-3.1-6.15-4.14a1.78,1.78,0,0,1-.12-1.85A.53.53,0,0,1,332.26,236Z" style="fill:#ff9a6c"></path><path d="M398.19,290.55,405,268.74s15.32,2.57,19.92,3.59c4.87,1.07,11.94,3.5,14.59,9s-2.7,14.14-8.3,16.78S398.19,290.55,398.19,290.55Z" style="fill:#e0e0e0"></path><path d="M398.19,290.55a1.88,1.88,0,0,1,.09-.38c.09-.29.19-.66.33-1.14l1.31-4.37,4.86-16,.05-.17.18,0c4.65.67,9.91,1.55,15.5,2.92a78.9,78.9,0,0,1,8.56,2.58,39.51,39.51,0,0,1,4.29,1.9,16.93,16.93,0,0,1,4,2.77,6.87,6.87,0,0,1,1.67,2.52,10.31,10.31,0,0,1,.32,2.95,18.81,18.81,0,0,1-1,5.62,18.06,18.06,0,0,1-2.53,4.9,10.72,10.72,0,0,1-4,3.45,10.21,10.21,0,0,1-5,.81,25.73,25.73,0,0,1-4.67-.75c-3-.73-5.61-1.71-8.08-2.41-4.95-1.42-9-2.6-11.67-3.58-1.36-.48-2.4-.89-3.11-1.18l-.8-.36-.25-.12a1.49,1.49,0,0,1,.29.09l.8.29c.72.26,1.77.64,3.13,1.09,2.73.91,6.74,2,11.71,3.42,2.49.68,5.16,1.63,8.09,2.34a25.13,25.13,0,0,0,4.59.72,9.73,9.73,0,0,0,4.74-.79,10.36,10.36,0,0,0,3.82-3.32,17.58,17.58,0,0,0,2.45-4.76,19,19,0,0,0,1-5.47,10.23,10.23,0,0,0-.31-2.78,6.33,6.33,0,0,0-1.54-2.32,16.66,16.66,0,0,0-3.83-2.67,40.69,40.69,0,0,0-4.23-1.88,81.92,81.92,0,0,0-8.5-2.58c-5.56-1.39-10.8-2.29-15.44-3l.23-.14c-2.1,6.58-3.82,12-5,15.8-.61,1.87-1.09,3.34-1.42,4.39l-.39,1.15A3.5,3.5,0,0,1,398.19,290.55Z" style="fill:#263238"></path><rect x="335.13" y="421.7" width="102.5" height="8.23" transform="translate(-39.43 812.19) rotate(-90)" style="fill:#455a64"></rect><rect x="387" y="422" width="69.86" height="6.81" transform="translate(843.87 850.8) rotate(180)" style="fill:#455a64"></rect><rect x="454" y="266.75" width="8.79" height="210.31" transform="translate(916.79 743.81) rotate(180)" style="fill:#455a64"></rect><rect x="378.07" y="367.08" width="84.72" height="14.8" transform="translate(840.86 748.97) rotate(180)" style="fill:#455a64"></rect><path d="M378.07,381.89c0,.11,18.92.2,42.24.2s42.24-.09,42.24-.2-18.9-.21-42.24-.21S378.07,381.77,378.07,381.89Z" style="fill:#263238"></path><path d="M421.48,367.08c0,.12,9.3.21,20.77.21s20.76-.09,20.76-.21-9.29-.2-20.76-.2S421.48,367,421.48,367.08Z" style="fill:#263238"></path><path d="M454,384.35c-.11,0-.2,18.83-.2,42s.09,42.07.2,42.07.2-18.83.2-42.07S454.11,384.35,454,384.35Z" style="fill:#263238"></path></g><g id="freepik--character-2--inject-6"><polygon points="275.82 465.29 274.14 455.74 257.2 455.71 259.05 466.8 265.1 470.45 275.82 465.29" style="fill:#ffbf9d"></polygon><path d="M258.69,464.63v1.09s-18.48,7.63-18.65,11.15l36.83-.54-.68-12.25A21,21,0,0,1,258.69,464.63Z" style="fill:#455a64"></path><g style="opacity:0.6000000000000001"><path d="M272.53,468.06a1.5,1.5,0,0,1,1.07,1.7,1.45,1.45,0,0,1-1.68,1.07A1.59,1.59,0,0,1,270.8,469a1.5,1.5,0,0,1,1.87-.92" style="fill:#fff"></path></g><g style="opacity:0.6000000000000001"><path d="M276.88,476.33l-.16-2.94L241.48,475s-1.63.74-1.43,1.89Z" style="fill:#fff"></path></g><path d="M258.57,465.83c0,.18.91.25,1.8.81s1.38,1.32,1.54,1.24-.12-1.11-1.21-1.77S258.53,465.66,258.57,465.83Z" style="fill:#263238"></path><path d="M254.73,467.48c0,.18.74.47,1.37,1.22s.81,1.56,1,1.55.28-1-.51-1.95S254.73,467.31,254.73,467.48Z" style="fill:#263238"></path><path d="M252.6,472.14c.17,0,.4-.87-.07-1.85s-1.33-1.35-1.4-1.2.45.67.83,1.48S252.42,472.12,252.6,472.14Z" style="fill:#263238"></path><polygon points="274.4 444.06 277.32 472.49 290.35 470.32 290.64 442.33 274.4 444.06" style="fill:#ffbf9d"></polygon><path d="M290.3,464.93s-8.63,7.26-13.63,2.17l-.91,2.78-3.43,19.58a2.56,2.56,0,0,0,1.77,2.92,2.6,2.6,0,0,0,2.64-.75c3.47-3.89,16.13-18.23,15.82-20l-.5-4.68a2.38,2.38,0,0,0-1.76-2Z" style="fill:#455a64"></path><g style="opacity:0.6000000000000001"><path d="M274.57,492.47,292.41,470l.1,1a2.83,2.83,0,0,1-.73,2.35c-1.4,2.26-5.38,7.39-15,18.23a2.61,2.61,0,0,1-2.25.85Z" style="fill:#fff"></path></g><g style="opacity:0.6000000000000001"><path d="M289.22,467.25a1.49,1.49,0,0,0-.24,2,1.51,1.51,0,0,0,2,.24,1.56,1.56,0,0,0,.25-2.12,1.57,1.57,0,0,0-2.14,0" style="fill:#fff"></path></g><path d="M279.27,481.4a7.4,7.4,0,0,0-2.34-1.68,7.84,7.84,0,0,0-2.91-.27c0-.06.27-.28.85-.41a4,4,0,0,1,2.25.18,3.89,3.89,0,0,1,1.81,1.33C279.26,481,279.33,481.37,279.27,481.4Z" style="fill:#263238"></path><path d="M277.8,484.79a21.43,21.43,0,0,0-2.29-.84c-1.31-.26-2.39.07-2.45-.08a2.92,2.92,0,0,1,2.56-.44C277.12,483.71,277.93,484.71,277.8,484.79Z" style="fill:#263238"></path><path d="M282.18,477a24.2,24.2,0,0,0-3.44-1.53,27.77,27.77,0,0,0-3.76-.5,5.82,5.82,0,0,1,3.91,0A5.52,5.52,0,0,1,282.18,477Z" style="fill:#263238"></path><path d="M282.07,471.1c-.05.15-1.48-.28-3.26-.18s-3.17.65-3.23.5a6.49,6.49,0,0,1,6.49-.32Z" style="fill:#263238"></path><path d="M277.79,471s-.06-.33,0-.91a6.38,6.38,0,0,1,1-2.33,2.9,2.9,0,0,1,1.37-1.24,1,1,0,0,1,1.13.32,1.58,1.58,0,0,1,.29,1.12,3.6,3.6,0,0,1-3.46,3,4.17,4.17,0,0,1-3.89-2.47,1.36,1.36,0,0,1,.05-1.18,1,1,0,0,1,1.09-.43,3.63,3.63,0,0,1,1.56,1,7,7,0,0,1,1.51,2,2.16,2.16,0,0,1,.3.87,11.18,11.18,0,0,0-2.07-2.61,3.34,3.34,0,0,0-1.38-.81.53.53,0,0,0-.6.23.94.94,0,0,0,0,.77,3.72,3.72,0,0,0,3.4,2.11,3.12,3.12,0,0,0,3-2.48,1.18,1.18,0,0,0-.17-.79.57.57,0,0,0-.62-.19,2.67,2.67,0,0,0-1.18,1A9.14,9.14,0,0,0,277.79,471Z" style="fill:#263238"></path><path d="M220.75,237.77s-5.79,26.4-6.13,46.89,18.64,78.57,21.48,91.9c1.93,9.07,10.21,54.42,20.59,81.83l15.53-.57s-13-92.24-13-101.9,1.41-61.13,1.41-61.13l3.45-39.17Z" style="fill:#263238"></path><path d="M301.53,244.84c-1.14.43-41.11,9-41.11,9S251,360.05,250.36,374s21.86,83.84,21.86,83.84h21.39s-.92-44.79-4.16-59.05c-3.76-16.52-7.28-20.2-5.71-29.15s17.91-52.26,22-76S301.53,244.84,301.53,244.84Z" style="fill:#263238"></path><path d="M233.33,270.12s.29,0,.8.08a19.83,19.83,0,0,1,2.12.5,28,28,0,0,1,12.22,7.36,16.73,16.73,0,0,1,1.43,1.65c.32.41.48.64.45.67s-.81-.8-2.14-2.05a33.75,33.75,0,0,0-5.64-4.29,34.42,34.42,0,0,0-6.43-3C234.42,270.46,233.31,270.2,233.33,270.12Z" style="fill:#455a64"></path><path d="M293.9,457.82l-.37,0-1.09,0-4.24,0-16,.08h-.12l0-.12c-2.54-8.62-5.78-19.75-9.43-32.58S254.85,398,251,382.46c-.39-1.68-.78-3.35-1.09-5a26.46,26.46,0,0,1-.44-5.09c0-3.36,0-6.68.08-9.93.13-6.51.35-12.78.56-18.76.42-11.95.9-22.71,1.32-31.75s.8-16.34,1.09-21.39c.16-2.51.28-4.46.37-5.82,0-.66.09-1.17.13-1.51s.07-.51.07-.51c-.06,1.42-.51,11.43-1.29,29.25-.38,9-.81,19.79-1.21,31.75-.2,6-.4,12.24-.53,18.75-.06,3.25-.11,6.56-.07,9.91a26.28,26.28,0,0,0,.43,5c.3,1.66.7,3.34,1.09,5,3.8,15.48,7.95,30,11.53,42.82s6.83,24,9.29,32.61l-.15-.12,16,.08,4.24,0,1.09,0A1.7,1.7,0,0,1,293.9,457.82Z" style="fill:#455a64"></path><path d="M283,270.16c0,.1-1.77-.06-4.6.1a39.7,39.7,0,0,0-4.93.61A38.19,38.19,0,0,0,262.08,275a39.38,39.38,0,0,0-4.2,2.66c-2.29,1.67-3.54,2.91-3.61,2.84a5.25,5.25,0,0,1,.84-.91,13.61,13.61,0,0,1,1.06-1c.43-.37.91-.81,1.49-1.23a34,34,0,0,1,4.18-2.79,39.53,39.53,0,0,1,5.61-2.57,38.72,38.72,0,0,1,5.95-1.57,35.87,35.87,0,0,1,5-.51c.72,0,1.36,0,1.93,0a14.06,14.06,0,0,1,1.46.09A6.79,6.79,0,0,1,283,270.16Z" style="fill:#455a64"></path><path d="M292.32,145.32c-1.84-1.51-7.17-2.6-12.19-3.73l-19.94-.35c-.4.19-5.7,2.89-5.7,2.89l-5.65,6.53-3.49,14.91,1.85,11.63s41.63-24,41.34-24.07S292.32,145.32,292.32,145.32Z" style="fill:#ffbf9d"></path><path d="M221.64,138.4c-.33-.88-1.32-1.29-2.15-1.73a9.26,9.26,0,0,1,.16-16.47,7.1,7.1,0,0,0,2.13-1.29c1.41-1.52.52-4,.83-6,.67-4.35,6.48-6,8-10.15.95-2.51.1-5.29-.41-7.92s-.47-5.8,1.63-7.46c1.13-.9,2.67-1.17,3.77-2.11,2.26-1.94,1.62-5.5,2.13-8.43a10.17,10.17,0,0,1,10-8.16s-2.41-3.73,2.1-6.48c5.44-3.32,6.43.8,8.72-2.19a8.85,8.85,0,0,1,10.8-2.39,26.76,26.76,0,0,0,3.26,1.82,17.52,17.52,0,0,0,4.53.46c5.8.41,16.32,5.83,14.15,13.59l-29.83,69.26a67.9,67.9,0,0,0-11.91,5.77c-1.11.72-1.48,10.36-2.73,10.77a8.5,8.5,0,0,1-4.87-.07,14,14,0,0,1-8.27-6.42,8.91,8.91,0,0,1-12.81-11.41C221.36,140.42,222,139.39,221.64,138.4Z" style="fill:#263238"></path><path d="M293.63,83.4,294,79l-26.46-6.7c-8.19-1.37-17.61,6.36-18.63,14.61-1.14,9.17-2.16,20.4-1.48,27.33,1.36,13.93,11.83,16.33,11.83,16.33l-.76,13.7,30.5,2.22Z" style="fill:#ffbf9d"></path><path d="M254.43,99.53a1.78,1.78,0,0,0,1.6,1.89A1.69,1.69,0,0,0,258,99.93,1.78,1.78,0,0,0,256.36,98,1.71,1.71,0,0,0,254.43,99.53Z" style="fill:#263238"></path><path d="M251.46,92.9c.21.24,1.61-.67,3.51-.55s3.25,1.16,3.47.94-.09-.53-.68-1a4.79,4.79,0,0,0-2.75-1,4.64,4.64,0,0,0-2.81.72C251.58,92.38,251.36,92.79,251.46,92.9Z" style="fill:#263238"></path><path d="M271.89,100.46a1.78,1.78,0,0,0,1.6,1.89,1.7,1.7,0,0,0,1.92-1.49A1.77,1.77,0,0,0,273.82,99,1.71,1.71,0,0,0,271.89,100.46Z" style="fill:#263238"></path><path d="M270.16,94.38c.21.25,1.61-.67,3.52-.55s3.24,1.16,3.46.94-.09-.53-.67-1a4.83,4.83,0,0,0-2.76-1,4.64,4.64,0,0,0-2.81.72C270.29,93.87,270.06,94.27,270.16,94.38Z" style="fill:#263238"></path><path d="M262.4,108.09a12.41,12.41,0,0,0-3.06-.74c-.48-.08-.94-.21-1-.54a2.49,2.49,0,0,1,.41-1.42l1.66-3.62c2.32-5.16,4-9.4,3.82-9.5s-2.26,4-4.57,9.17l-1.6,3.64a2.84,2.84,0,0,0-.37,1.9,1.24,1.24,0,0,0,.76.76,3.47,3.47,0,0,0,.82.16A12.14,12.14,0,0,0,262.4,108.09Z" style="fill:#263238"></path><path d="M259.26,130.55a36.56,36.56,0,0,0,19.25-3.82s-5.24,9.39-19.45,7.27Z" style="fill:#ff9a6c"></path><path d="M266.75,111.36c.77.31.59.88,1.05,1.59a2,2,0,0,1,0,2.28,4.33,4.33,0,0,1-2.92,1.33c-1.59-.09-1.85-1.23-2.26-2.3l-.43-1.33C263.51,112.5,266.15,111.12,266.75,111.36Z" style="fill:#ff9a6c"></path><path d="M270.12,86.89c.16.53,2.07.4,4.29.8s4,1.12,4.32.67c.14-.21-.14-.72-.84-1.26a7.2,7.2,0,0,0-3.15-1.32,7.28,7.28,0,0,0-3.41.19C270.49,86.25,270.06,86.64,270.12,86.89Z" style="fill:#263238"></path><path d="M252.49,87.43c.31.45,1.65.08,3.23.16s2.9.46,3.23,0c.15-.21,0-.66-.59-1.1a4.42,4.42,0,0,0-2.58-.87,4.49,4.49,0,0,0-2.63.71C252.57,86.78,252.36,87.21,252.49,87.43Z" style="fill:#263238"></path><path d="M249,76.94a23.13,23.13,0,0,1,12.6-8.32l22.35,2.81L290,75.1a4.1,4.1,0,0,0-.71-3c2.1-1.61,9.27-4.2,14.34,1.1,1.83,1.91,3.36,7,3.4,9.65,0,1-.08,2.22.76,2.77a3,3,0,0,0,1,.33,11.52,11.52,0,0,1,8.46,13.23,3.17,3.17,0,0,0-.12,1.14,3.06,3.06,0,0,0,1,1.48,9.87,9.87,0,0,1,1.56,11,12,12,0,0,0-1.52,3.29c-.34,2.15,1.23,4.07,2.45,5.87,3.64,5.42,4.42,13.28.14,18.21-1,1.2-2.38,2.27-2.77,3.81a9.38,9.38,0,0,0-.12,2.31c0,3.93-2,8.33-5.89,9.16-2.13.46-4.72-.14-6.24,1.43a9.24,9.24,0,0,0-1.36,2.49,8,8,0,0,1-9.19,4c-3.47-1.07-4.62-15.14-4.12-18.74-4.2-1.52-7.31-1.79-7.11-6.26,0,0,.65-7.68-.6-11.42s1.26-11.71,2.68-15.58-.28-12.88-.66-16.46a13.44,13.44,0,0,1,.3-3.06h0c.16-.87.36-1.85.6-2.9a25.63,25.63,0,0,0,.08-2.88,5.09,5.09,0,0,0-6.66-4.73,8.26,8.26,0,0,1-2.41.43,8.57,8.57,0,0,1-6.9-3.27,12.34,12.34,0,0,1-12.18,3.33,33.54,33.54,0,0,1-5.78,6.72,11.31,11.31,0,0,1-8.18,2.81A23.16,23.16,0,0,1,249,76.94Z" style="fill:#263238"></path><path d="M251.27,80.93s0-.5,0-1.4a8.78,8.78,0,0,1,1.15-3.64,8.14,8.14,0,0,1,4.27-3.68,8.64,8.64,0,0,1,6.95.43l.16.09.12-.15a12.67,12.67,0,0,1,3-2.66,13,13,0,0,1,8.3-1.89,12.77,12.77,0,0,1,6.44,2.78,13.52,13.52,0,0,1,3.11,3.64c.57,1,.78,1.59.83,1.57a1.84,1.84,0,0,0-.14-.44,9,9,0,0,0-.53-1.22A13,13,0,0,0,282,70.57a12.7,12.7,0,0,0-6.59-2.95,13.17,13.17,0,0,0-11.75,4.68l.28,0a8.9,8.9,0,0,0-7.3-.4,8.4,8.4,0,0,0-4.39,3.89,8.78,8.78,0,0,0-1.05,3.78,7.36,7.36,0,0,0,0,1A1.81,1.81,0,0,0,251.27,80.93Z" style="fill:#455a64"></path><path d="M263.94,116.16a6.28,6.28,0,0,0,1.91,0,2.55,2.55,0,0,0,1.59-1.09,2.34,2.34,0,0,0,0-2.27,10.32,10.32,0,0,0-.82-1.42l.29.1a30.15,30.15,0,0,1-4.88,1.37,28.1,28.1,0,0,1,4.72-1.85L267,111l.11.16a8.47,8.47,0,0,1,.87,1.49,2.75,2.75,0,0,1-.1,2.74,2.79,2.79,0,0,1-1.92,1.19A2.54,2.54,0,0,1,263.94,116.16Z" style="fill:#263238"></path><path d="M302.25,80.76c-.09,0-.5-.87-1.56-2a9.48,9.48,0,0,0-11.08-2.18c-1.42.65-2.15,1.34-2.21,1.26s.14-.22.47-.52a8.13,8.13,0,0,1,1.58-1.07A9.26,9.26,0,0,1,301,78.51,7.46,7.46,0,0,1,302,80.1C302.21,80.5,302.28,80.74,302.25,80.76Z" style="fill:#455a64"></path><path d="M301.39,122.05a5.3,5.3,0,0,1-1.77-1.16,8.26,8.26,0,0,1-2.49-5.17,7.59,7.59,0,0,1,1.74-5.91,5.21,5.21,0,0,0,1.12-1.92,2.33,2.33,0,0,0-.65-2c-.52-.62-1.2-1.15-1.82-1.79a4.56,4.56,0,0,1-1.33-2.43,6.6,6.6,0,0,1,.14-2.83,40.7,40.7,0,0,1,2.08-5,9.71,9.71,0,0,0,.65-4.83A9.82,9.82,0,0,0,295,82a10.4,10.4,0,0,0-5.28-1.86c-1.35-.09-2.09.08-2.1,0a2.21,2.21,0,0,1,.54-.13,9,9,0,0,1,1.57-.09,10.27,10.27,0,0,1,5.48,1.76,10.36,10.36,0,0,1,3.7,12.3,43.9,43.9,0,0,0-2.06,5,6.25,6.25,0,0,0-.13,2.61,4,4,0,0,0,1.19,2.18c.58.61,1.27,1.15,1.83,1.82a2.81,2.81,0,0,1,.74,2.48,5.43,5.43,0,0,1-1.24,2.09,8.46,8.46,0,0,0-1.15,1.81,7.77,7.77,0,0,0-.57,3.79,8.31,8.31,0,0,0,2.26,5A11.81,11.81,0,0,0,301.39,122.05Z" style="fill:#455a64"></path><path d="M198.41,157.67s3.43-1.9,4.28-.07-4.05,4.36-4.05,4.36l-1.9-2.24Z" style="fill:#ff9a6c"></path><path d="M182.12,180.41s-2.38-5.18-1.75-8.11c.51-2.37,5.12-11.18,6.88-14.49a3.68,3.68,0,0,1,2-1.74l15.26-5.41s1.15,1.78-.09,2.68-6.94,3.48-6.94,3.48a10.3,10.3,0,0,1,1.81,3.12,3.47,3.47,0,0,1-.81,2.28s1.39,1-.17,3.7c0,0,1.45,2.65-1.11,3.91a18.71,18.71,0,0,1-2.52,1s-2.84,4.94-3.46,5.39c-.1.08,4.31,6.43,4.31,6.43l-8.34,11.45Z" style="fill:#ffbf9d"></path><path d="M187.75,178.53a13.29,13.29,0,0,1,1.68-1.41,11.86,11.86,0,0,1,1.81-1.24,12.79,12.79,0,0,1-1.68,1.4A11.84,11.84,0,0,1,187.75,178.53Z" style="fill:#ff9a6c"></path><path d="M193.76,165a9.23,9.23,0,0,1,2.3.11,9.07,9.07,0,0,1,2.26.49c0,.06-1-.13-2.28-.29S193.76,165,193.76,165Z" style="fill:#ff9a6c"></path><path d="M198.51,161.67c0,.06-1-.26-2.29-.43s-2.31-.15-2.32-.22a6.73,6.73,0,0,1,2.35,0A7,7,0,0,1,198.51,161.67Z" style="fill:#ff9a6c"></path><path d="M193.42,157.44a11.85,11.85,0,0,1,2-.62,10,10,0,0,1,2.06-.42,21.45,21.45,0,0,1-4.07,1Z" style="fill:#ff9a6c"></path><path d="M290.63,144.31s21.91,7.46,22.74,13.82-25.51,63.61-25.51,63.61,29.41,44.36,19,44.73c-8.91.32-90.55-5.49-91.19-9.28-.2-1.2,7.54-63.85,9.2-75.46s12.32-33.12,12.32-33.12l21.34-5s-3,7-3.4,21.93C255.12,165.57,288.14,151.22,290.63,144.31Z" style="fill:#003366"></path><g style="opacity:0.30000000000000004"><path d="M236.55,216,221.85,218q2.13,3.56,4.46,7c1.26,1.85,2.74,3.79,4.89,4.39s4.6-.38,6.86-1,5.13-.59,6.44,1.35c1.56,2.31-.09,5.88,1.7,8a6.21,6.21,0,0,0,3.51,1.66l27.56,6.37c3.8.88,7.7,1.76,11.58,1.31s7.81-2.5,9.44-6Q266.94,229.74,236.55,216Z"></path></g><path d="M313.17,157.37s6.14,9.24,7.26,29.24c.64,11.38-1.44,29.14-3.64,43.34-1.53,9.94-9.45,15.13-17.07,15-7-.16-39.29-6-49-9.05l2.32-9.87,4.08-13.46,28.05,1.59a3,3,0,0,1,1.33-3.41c2.05-1.6,5.92-16.4,5.92-16.4Z" style="fill:#003366"></path><path d="M289.47,188.72s0,.15,0,.45-.06.77-.1,1.35c-.11,1.2-.27,2.94-.46,5.19s-.48,5.06-.79,8.31c-.17,1.63-.34,3.37-.56,5.23l-.09.7,0,.1s-.07.18-.14.19l-.16.06a3,3,0,0,0-.32.11,2.38,2.38,0,0,0-1.05.86,3.91,3.91,0,0,0-.42,2.81l0,.21h-.21l-27.56-1.75.23-.15c-1.11,3.57-2.27,7.34-3.48,11.25-.3,1-.63,2-.91,3s-.54,2-.81,3c-.55,2.05-1.11,4.14-1.67,6.25l-.08-.25,1.87.43,2,.45,4.09.86,8.42,1.72c5.71,1.13,11.6,2.25,17.62,3.28,3.86.66,7.69,1.29,11.47,1.72a24.55,24.55,0,0,0,5.6.19,16.42,16.42,0,0,0,5.24-1.59,17.15,17.15,0,0,0,7.44-7.47,20.67,20.67,0,0,0,1.79-4.89c.44-1.67.78-3.35,1.08-5a187.8,187.8,0,0,0,2.29-19.11c.42-6,.63-11.64.54-16.76a85.68,85.68,0,0,0-3.73-23.91,48.44,48.44,0,0,0-2.4-6.15c-.32-.68-.59-1.19-.77-1.53l-.28-.51a5,5,0,0,1,.32.48c.2.34.49.84.83,1.51a46.92,46.92,0,0,1,2.5,6.13,84.64,84.64,0,0,1,3.9,24c.12,5.14-.08,10.77-.48,16.8A183.48,183.48,0,0,1,318,225.43c-.3,1.67-.64,3.37-1.08,5.06a20.66,20.66,0,0,1-1.82,5,17.65,17.65,0,0,1-7.65,7.69,16.66,16.66,0,0,1-5.41,1.65,24.89,24.89,0,0,1-5.72-.19c-3.8-.42-7.63-1-11.49-1.71-6-1-11.93-2.16-17.64-3.3l-8.42-1.72-4.09-.87-2-.45-1-.23-.51-.12-.58-.19-.13,0,.05-.2,1.68-6.26c.28-1,.55-2.05.82-3.06s.61-2,.91-3c1.22-3.92,2.4-7.68,3.51-11.26l0-.16h.18L285.19,214l-.18.2a4.21,4.21,0,0,1,.49-3.06,2.8,2.8,0,0,1,1.19-1L287,210l.18-.06c-.05,0-.11.08-.09,0l0-.08c0-.23.07-.46.1-.69.23-1.85.41-3.59.59-5.22.34-3.24.63-6,.87-8.29s.42-4,.54-5.19c.07-.58.12-1,.15-1.34S289.47,188.72,289.47,188.72Z" style="fill:#263238"></path><path d="M176.54,195.35s8.19,16.16,21,22.76C213.6,226.43,230,195.54,230,195.54l7.23-46.93s-8.24,3.06-14.33,13.46S205.58,187,205.58,187l-11.71-8.15Z" style="fill:#003366"></path><g style="opacity:0.30000000000000004"><polygon points="223.76 160.58 220.35 166.14 220.35 211.79 225.46 211.79 223.76 160.58"></polygon></g><path d="M231.55,163.11a4.72,4.72,0,0,1-.37.81c-.26.52-.64,1.29-1.08,2.3A59.14,59.14,0,0,0,227,175a88.75,88.75,0,0,0-2.35,13.64c-.28,2.6-.45,5.33-.63,8.18s-.6,5.78-1.05,8.76c-.9,6-1.93,11.64-2.81,16.8s-1.65,9.8-2.21,13.71-.92,7.09-1.13,9.29c-.09,1.07-.16,1.91-.21,2.54a4.74,4.74,0,0,1-.11.88,5,5,0,0,1,0-.89c0-.58,0-1.44.11-2.55.16-2.2.45-5.4,1-9.32s1.25-8.58,2.11-13.75,1.87-10.82,2.77-16.78c.45-3,.86-5.9,1.05-8.73s.37-5.58.66-8.19a84.91,84.91,0,0,1,2.48-13.69,53.57,53.57,0,0,1,3.26-8.8c.47-1,.88-1.75,1.17-2.26A5.21,5.21,0,0,1,231.55,163.11Z" style="fill:#263238"></path><path d="M221.26,140.18H225a.74.74,0,0,1,.7.73l.15,3.21a.75.75,0,0,1-.7.81l-3.86,0Z" style="fill:#e0e0e0"></path><path d="M229.49,144.13c.74.07,20.95-3.23,22.81-3.71a2.61,2.61,0,0,0,2.2-2.12L224,141l-.13,1.79,3.62-.29S228.75,144.06,229.49,144.13Z" style="fill:#f5f5f5"></path><path d="M252.3,140.42a5.76,5.76,0,0,0,.83-.28l-1.3.1-24.32,2.24s1.24,1.58,2,1.65S250.44,140.9,252.3,140.42Z" style="fill:#ebebeb"></path><path d="M224.86,142.69s2.77-.33,6.2-.64,6.2-.51,6.2-.46-2.76.33-6.19.64S224.87,142.74,224.86,142.69Z" style="fill:#263238"></path><polygon points="217.34 144.98 214.62 211.06 222.74 211.06 220.56 144.98 217.34 144.98" style="fill:#f5f5f5"></polygon><path d="M217.34,145h.18l.58,0,2.46,0h.07V145c.38,8.22,1.32,34.55,2.37,66.07v.27h-8.66v-.27c.81-18.54,1.53-35.08,2-47,.28-5.91.5-10.68.66-14,.08-1.61.14-2.87.19-3.76,0-.41,0-.73.06-1a1.25,1.25,0,0,1,0-.32,3.42,3.42,0,0,1,0,.36c0,.25,0,.58,0,1,0,.9-.07,2.19-.12,3.83-.12,3.34-.29,8.13-.5,14.06-.46,11.9-1.1,28.37-1.82,46.84l-.26-.27h8.12l-.26.27c-1-31.52-1.83-57.86-2-66.08l.08.07-2.42-.05h-.6A.8.8,0,0,1,217.34,145Z" style="fill:#263238"></path><polygon points="217.34 144.98 217.16 151.64 220.67 148.55 220.56 144.98 217.34 144.98" style="fill:#e0e0e0"></polygon><path d="M213.26,141.11v3.32a.55.55,0,0,0,.55.55h7.45v-4.8l-7.48.38A.56.56,0,0,0,213.26,141.11Z" style="fill:#f5f5f5"></path><path d="M213.26,140.93a.43.43,0,0,1,.09-.33.51.51,0,0,1,.35-.23c.17,0,.36,0,.57,0l3.59-.11,5.33-.13,1.54,0h.4a.71.71,0,0,1,.44.1.66.66,0,0,1,.27.38,3.32,3.32,0,0,1,0,.43c0,1.09,0,2.22,0,3.38a.66.66,0,0,1-.55.73h-5.68l-5.33,0h-.56a.62.62,0,0,1-.5-.27.9.9,0,0,1-.09-.52v-.47c0-.57,0-1.09,0-1.54s0-.7,0-1a2.3,2.3,0,0,1,0-.34,2.3,2.3,0,0,1,0,.34l0,1c0,.45,0,1,0,1.54v.47a.7.7,0,0,0,.08.44c.17.3.57.2.95.21l5.33,0h5.65a.44.44,0,0,0,.37-.52c0-1.15,0-2.28,0-3.38,0-.28,0-.52-.2-.64s-.46-.05-.72-.07l-1.54,0-5.33.09-3.6,0h-.56a.54.54,0,0,0-.33.19A.62.62,0,0,0,213.26,140.93Z" style="fill:#263238"></path><path d="M220.6,137.43c-.56-.49-19-9.44-20.77-10.12a2.6,2.6,0,0,0-3,.46l26.45,15.39,1.13-1.39-3.12-1.85S221.17,137.91,220.6,137.43Z" style="fill:#f5f5f5"></path><path d="M199.83,127.31a6.5,6.5,0,0,0-.84-.25l1.12.66,21.16,12.2s-.1-2-.67-2.49S201.62,128,199.83,127.31Z" style="fill:#ebebeb"></path><path d="M213.41,135.39a3.06,3.06,0,0,1,.43.22l1.14.66,3.78,2.14c1.48.84,2.81,1.61,3.76,2.19l1.12.71a2.14,2.14,0,0,1,.39.28,2.52,2.52,0,0,1-.43-.22l-1.14-.66-3.79-2.14c-1.47-.84-2.8-1.61-3.75-2.2-.48-.29-.86-.53-1.12-.7A2.14,2.14,0,0,1,213.41,135.39Z" style="fill:#263238"></path><path d="M223,148.8c.15.73,9,19.18,10,20.83a2.61,2.61,0,0,0,2.66,1.51l-11.19-28.48-1.75.38,1.3,3.4S222.87,148.07,223,148.8Z" style="fill:#f5f5f5"></path><path d="M233,169.63a7,7,0,0,0,.5.72l-.46-1.22-9-22.69s-1.17,1.63-1,2.36S232,168,233,169.63Z" style="fill:#ebebeb"></path><path d="M222.68,142.89a3.29,3.29,0,0,1,.2.42c.14.31.31.71.51,1.18.43,1,1,2.39,1.61,3.93s1.14,3,1.51,4c.18.51.33.93.42,1.22a2.27,2.27,0,0,1,.12.46,3.13,3.13,0,0,1-.19-.44l-.47-1.2-1.55-3.94c-.61-1.53-1.15-2.91-1.56-4-.19-.48-.34-.89-.46-1.2A2.15,2.15,0,0,1,222.68,142.89Z" style="fill:#263238"></path><path d="M224.8,142.2c0,.34.28,1,.08,1.24s-.89.14-1.25.14a1.4,1.4,0,0,1,0-2.76,3.79,3.79,0,0,1,1.3.1C225.21,141,224.8,141.86,224.8,142.2Z" style="fill:#f5f5f5"></path><path d="M225.65,142.2a1.18,1.18,0,1,1-1.16-1.38A1.29,1.29,0,0,1,225.65,142.2Z" style="fill:#e0e0e0"></path><path d="M223.39,140.82a1.46,1.46,0,0,1,.42,0h.5a2.91,2.91,0,0,1,.31,0,.88.88,0,0,1,.34.1h0a1.43,1.43,0,0,1,.77,1.21,1.57,1.57,0,0,1-.4,1.21,1.11,1.11,0,0,1-.94.36h0a3.8,3.8,0,0,1-.77,0,2.9,2.9,0,0,1,.76-.07h0a1,1,0,0,0,.81-.35,1.47,1.47,0,0,0,.35-1.08,1.32,1.32,0,0,0-.67-1.09h0a1,1,0,0,0-.29-.1h-.78A1.49,1.49,0,0,1,223.39,140.82Z" style="fill:#263238"></path><path d="M224.39,143.56s-.21,0-.48-.18a1.47,1.47,0,0,1-.29-2.21.8.8,0,0,1,.42-.3s-.15.13-.32.37a1.56,1.56,0,0,0-.28,1.08,1.51,1.51,0,0,0,.55,1C224.21,143.47,224.4,143.53,224.39,143.56Z" style="fill:#263238"></path><path d="M223.88,143.59a.85.85,0,0,1-.55-.07,1.52,1.52,0,0,1-.91-1,1.56,1.56,0,0,1,.26-1.31c.22-.28.43-.36.43-.34s-.15.14-.33.41a1.53,1.53,0,0,0-.18,1.19,1.5,1.5,0,0,0,.78.91C223.67,143.55,223.88,143.56,223.88,143.59Z" style="fill:#263238"></path><path d="M221.27,139.92s0-.21,0-.59a4.18,4.18,0,0,0-.47-1.59c-.16-.34-.55-.5-.94-.71l-1.29-.65-3.18-1.57-8.3-4-4.93-2.34a26.68,26.68,0,0,0-2.63-1.13,3.82,3.82,0,0,0-1.42-.16,1.52,1.52,0,0,0-1.17.65l0-.13.33.2,18,10.5,5.43,3.2,1.47.88.51.32s-.19-.09-.53-.28l-1.49-.85-5.46-3.14-18-10.45-.34-.2-.09,0,.05-.08a1.7,1.7,0,0,1,1.34-.78,4.12,4.12,0,0,1,1.49.17,25.84,25.84,0,0,1,2.67,1.15l4.92,2.35,8.29,4.06,3.16,1.59,1.29.68c.38.21.79.38,1,.75a4,4,0,0,1,.44,1.63A4.45,4.45,0,0,1,221.27,139.92Z" style="fill:#263238"></path><path d="M227.45,142.44s.12.16.37.46a4.11,4.11,0,0,0,1.29,1,2.13,2.13,0,0,0,1.18,0l1.44-.2,3.5-.53,9.11-1.46,5.38-.9a25.49,25.49,0,0,0,2.81-.58,3.73,3.73,0,0,0,1.26-.67,1.53,1.53,0,0,0,.6-1.2l.11.08-.39,0-20.74,1.67-6.29.48-1.71.12c-.39,0-.6,0-.6,0l.6-.07,1.7-.16,6.29-.55,20.73-1.73.39,0h.1v.09a1.75,1.75,0,0,1-.66,1.4,4.22,4.22,0,0,1-1.34.71,27,27,0,0,1-2.84.58l-5.38.89-9.12,1.41-3.51.5-1.44.19a2.17,2.17,0,0,1-1.22-.05,4.08,4.08,0,0,1-1.3-1.08A5,5,0,0,1,227.45,142.44Z" style="fill:#263238"></path><path d="M224.06,146.36a4.8,4.8,0,0,0-.33.49,5.41,5.41,0,0,0-.63,1.54c-.16.37.09.72.26,1.13l.58,1.32,1.51,3.2,4,8.28,2.42,4.88c.43.83.82,1.73,1.34,2.53a3.7,3.7,0,0,0,1,1,1.52,1.52,0,0,0,1.32.25l-.05.13-.11-.26c-2.91-7.51-5.55-14.3-7.5-19.29l-2.25-5.86c-.24-.65-.44-1.17-.6-1.59s-.19-.56-.19-.56l.23.54.64,1.58c.57,1.45,1.36,3.42,2.31,5.83l7.56,19.27c0,.09.07.18.1.26l0,.1-.09,0a1.73,1.73,0,0,1-1.52-.26,4.14,4.14,0,0,1-1.05-1.08,28.71,28.71,0,0,1-1.35-2.56c-.84-1.69-1.64-3.33-2.41-4.88-1.52-3.12-2.88-5.93-4-8.31-.56-1.18-1.06-2.26-1.48-3.21-.21-.47-.4-.92-.57-1.33a5.09,5.09,0,0,1-.25-.6.78.78,0,0,1-.06-.31l.06-.28a5,5,0,0,1,.67-1.54A3.64,3.64,0,0,1,224.06,146.36Z" style="fill:#263238"></path><rect x="202.63" y="210.65" width="32.88" height="3.3" style="fill:#f5f5f5"></rect><path d="M232,210.64c0,.15-6.58.27-14.7.27s-14.69-.12-14.69-.27,6.57-.26,14.69-.26S232,210.5,232,210.64Z" style="fill:#263238"></path><polygon points="243.66 208.36 257.13 212.52 252.29 228.48 243.66 221.9 243.66 208.36" style="fill:#ffbf9d"></polygon><path d="M244.08,208.49s-7.75-3.06-9-3.1a53.63,53.63,0,0,0-6.44,1.1,3.5,3.5,0,0,0-1.73.91l-3.13,3,4.59.12,1.59-.76,2.82-.52Z" style="fill:#ffbf9d"></path><path d="M236,207.74l-8,4L215.66,214a3,3,0,0,0,2.5,2.9c1.49.23,4.86.45,4.86.45a4.12,4.12,0,0,0,2.86,2.36,6.22,6.22,0,0,0,2.11,1.88,1.9,1.9,0,0,0,.39.11c1.2.18,3.94,3,5.54,3.19s9.74-2.94,9.74-2.94V208.36Z" style="fill:#ffbf9d"></path><path d="M234.46,214.92s-.64.23-1.68.59a31.7,31.7,0,0,1-4.13,1.14,31.14,31.14,0,0,1-4.24.58c-1.09.08-1.78.07-1.78.11a1.87,1.87,0,0,0,.48,0c.31,0,.76,0,1.31,0a25.45,25.45,0,0,0,4.28-.52,27.7,27.7,0,0,0,4.14-1.21c.52-.21.93-.38,1.2-.52A2.29,2.29,0,0,0,234.46,214.92Z" style="fill:#ff9a6c"></path><path d="M233.32,218.57a2,2,0,0,0,.21.82,1.69,1.69,0,0,0,.56.74,1.4,1.4,0,0,0,1.14.21,2.7,2.7,0,0,0,1-.46c.29-.2.52-.39.72-.55.4-.31.67-.45.66-.48a1.67,1.67,0,0,0-.76.35,4.93,4.93,0,0,1-1.7.92,1.32,1.32,0,0,1-1-.16,1.78,1.78,0,0,1-.54-.64A5.83,5.83,0,0,0,233.32,218.57Z" style="fill:#ff9a6c"></path><path d="M227.26,220.26a3.9,3.9,0,0,0,1,.1,18.31,18.31,0,0,0,2.29,0,22.13,22.13,0,0,0,2.28-.28,3.47,3.47,0,0,0,.92-.24c0-.07-1.44.17-3.22.29S227.26,220.19,227.26,220.26Z" style="fill:#ff9a6c"></path><path d="M234.09,222.84a3,3,0,0,0,2.93,0c0-.06-.66.15-1.47.13S234.11,222.78,234.09,222.84Z" style="fill:#ff9a6c"></path><path d="M231.05,223.11c0,.07.42.12.94.11s.93-.05.93-.12A2.11,2.11,0,0,0,232,223,2.17,2.17,0,0,0,231.05,223.11Z" style="fill:#ff9a6c"></path><path d="M228,211.79a24.7,24.7,0,0,0,3.73-1.86c1-.56,1.91-1.09,2.55-1.5a4.65,4.65,0,0,0,1-.71,9.4,9.4,0,0,0-1.08.57l-2.57,1.44-2.57,1.44A8.16,8.16,0,0,0,228,211.79Z" style="fill:#ff9a6c"></path><path d="M205.45,206.06a15.48,15.48,0,0,1-.12-2.81c0-1.74,0-4.14.08-6.79s.14-5.05.23-6.79a13.31,13.31,0,0,1,.25-2.8,15.58,15.58,0,0,1,.12,2.81c0,1.74,0,4.14-.08,6.79s-.15,5.05-.23,6.78A15.59,15.59,0,0,1,205.45,206.06Z" style="fill:#263238"></path><path d="M200.7,204.08a12.29,12.29,0,0,1,.34-2.65c.3-1.61.79-3.84,1.47-6.26s1.4-4.57,2-6.11a12,12,0,0,1,1.07-2.45,15.17,15.17,0,0,1-.72,2.57c-.49,1.56-1.16,3.72-1.83,6.13s-1.22,4.61-1.61,6.2A15.44,15.44,0,0,1,200.7,204.08Z" style="fill:#263238"></path><path d="M311.66,156.39a10,10,0,0,1-1.53.19l-.82.08c-.29,0-.61.12-.95.18a14.45,14.45,0,0,0-2.3.59l-1.3.44-1.35.64-.7.34-.69.43c-.45.31-1,.57-1.41.93a22.48,22.48,0,0,0-5.15,5.45,29.81,29.81,0,0,0-2,3.37c-.5,1.16-1,2.26-1.38,3.37a36,36,0,0,0-1.52,6c-.25,1.75-.43,3.17-.47,4.16a8.06,8.06,0,0,1-.15,1.53,8.46,8.46,0,0,1-.05-1.54,32.57,32.57,0,0,1,1.74-10.29,32.65,32.65,0,0,1,1.37-3.43,29.57,29.57,0,0,1,2-3.45,22.32,22.32,0,0,1,5.3-5.54c.47-.36,1-.63,1.46-.93l.71-.43.73-.34,1.38-.63,1.35-.41a12.43,12.43,0,0,1,2.35-.52c.35-.06.67-.12,1-.15l.83,0A8,8,0,0,1,311.66,156.39Z" style="fill:#263238"></path><path d="M292.19,224.6a33.85,33.85,0,0,0-2.8-5.75,34.43,34.43,0,0,0-4.24-4.78,5.07,5.07,0,0,1,1.59,1.06,16.32,16.32,0,0,1,5.08,7.59A5.2,5.2,0,0,1,292.19,224.6Z" style="fill:#263238"></path><path d="M301.32,214.66a33.7,33.7,0,0,0-6.69-3.38,34.16,34.16,0,0,0-7.37-1.3,6.78,6.78,0,0,1,2.23-.15,18.71,18.71,0,0,1,5.31,1,19,19,0,0,1,4.83,2.41A6.68,6.68,0,0,1,301.32,214.66Z" style="fill:#263238"></path><g style="opacity:0.30000000000000004"><path d="M292,223.9a19.4,19.4,0,0,0-6.79-9.79l0,.11A21.36,21.36,0,0,1,289.81,226a3.75,3.75,0,0,0,.36,1.6,1.17,1.17,0,0,0,1.4.56,1.33,1.33,0,0,0,.63-.9A6.18,6.18,0,0,0,292,223.9Z"></path></g><path d="M286.61,110.47a14.27,14.27,0,0,0-3.46,15.86,18.49,18.49,0,0,0-4.91,5.22,8.59,8.59,0,0,0-.93,6.92,5.67,5.67,0,0,0,5.44,3.91A8.94,8.94,0,0,0,298,136.7Z" style="fill:#263238"></path></g><g id="freepik--Table--inject-6"><rect x="163.12" y="327.88" width="11.06" height="149.41" style="fill:#455a64"></rect><rect x="347.56" y="326.97" width="11.06" height="149.41" style="fill:#455a64"></rect><rect x="109.05" y="315.37" width="283.93" height="13.3" style="fill:#455a64"></rect><path d="M393,328.66s0-.27,0-.81,0-1.35,0-2.44c0-2.19,0-5.5,0-10l.07.07-283.92.19h0l.26-.26v13.29l-.26-.26,201.18.11,60.56.08,16.44,0h4.28l1.47,0s-.48,0-1.43,0l-4.25,0-16.38,0-60.5.07-201.37.11h-.26V315.11h.27l283.92.18h.07v.08c0,4.56,0,7.88,0,10.08,0,1.08,0,1.89,0,2.43S393,328.66,393,328.66Z" style="fill:#263238"></path><rect x="303.8" y="308.23" width="65.83" height="7.13" style="fill:#003366"></rect><path d="M310.24,315.52c0,.06-.59,0-1.3-.57a3.81,3.81,0,0,1,.13-6.14c.74-.53,1.32-.57,1.33-.51s-.49.24-1.1.8a3.7,3.7,0,0,0-.12,5.58C309.77,315.25,310.27,315.44,310.24,315.52Z" style="fill:#263238"></path><path d="M314.59,315.52c0,.06-.59,0-1.3-.57a3.82,3.82,0,0,1,.13-6.14c.74-.53,1.32-.57,1.33-.51s-.49.24-1.1.8a3.9,3.9,0,0,0-1.32,2.76,4,4,0,0,0,1.2,2.82C314.12,315.25,314.63,315.44,314.59,315.52Z" style="fill:#263238"></path><path d="M318.94,315.52c0,.06-.59,0-1.3-.57a3.82,3.82,0,0,1,.13-6.14c.74-.53,1.32-.57,1.33-.51s-.49.24-1.1.8a3.9,3.9,0,0,0-1.32,2.76,4,4,0,0,0,1.2,2.82C318.47,315.25,319,315.44,318.94,315.52Z" style="fill:#263238"></path><path d="M323.3,315.52c0,.06-.59,0-1.31-.57a3.82,3.82,0,0,1,.13-6.14c.74-.53,1.32-.57,1.33-.51s-.49.24-1.1.8a3.72,3.72,0,0,0-.12,5.58C322.82,315.25,323.33,315.44,323.3,315.52Z" style="fill:#263238"></path><path d="M327.65,315.52c0,.06-.59,0-1.31-.57a3.82,3.82,0,0,1,.13-6.14c.74-.53,1.32-.57,1.33-.51s-.49.24-1.1.8a3.72,3.72,0,0,0-.12,5.58C327.17,315.25,327.68,315.44,327.65,315.52Z" style="fill:#263238"></path><path d="M332,315.52c0,.06-.59,0-1.31-.57a3.82,3.82,0,0,1,.13-6.14c.74-.53,1.33-.57,1.33-.51s-.48.24-1.1.8a3.72,3.72,0,0,0-.12,5.58C331.52,315.25,332,315.44,332,315.52Z" style="fill:#263238"></path><path d="M336.35,315.52c0,.06-.59,0-1.31-.57a3.82,3.82,0,0,1,.13-6.14c.74-.53,1.33-.57,1.33-.51s-.48.24-1.1.8a3.71,3.71,0,0,0-.11,5.58C335.87,315.25,336.38,315.44,336.35,315.52Z" style="fill:#263238"></path><path d="M340.7,315.52c0,.06-.59,0-1.31-.57a3.82,3.82,0,0,1,.13-6.14c.75-.53,1.33-.57,1.34-.51s-.49.24-1.1.8a3.7,3.7,0,0,0-.12,5.58C340.22,315.25,340.73,315.44,340.7,315.52Z" style="fill:#263238"></path><path d="M345.05,315.52c0,.06-.59,0-1.3-.57a3.81,3.81,0,0,1,.13-6.14c.74-.53,1.32-.57,1.33-.51s-.49.24-1.1.8a4,4,0,0,0-1.33,2.76,4,4,0,0,0,1.21,2.82C344.58,315.25,345.08,315.44,345.05,315.52Z" style="fill:#263238"></path><path d="M349.4,315.52c0,.06-.59,0-1.3-.57a3.82,3.82,0,0,1,.13-6.14c.74-.53,1.32-.57,1.33-.51s-.49.24-1.1.8a3.9,3.9,0,0,0-1.32,2.76,4,4,0,0,0,1.2,2.82C348.93,315.25,349.44,315.44,349.4,315.52Z" style="fill:#263238"></path><path d="M353.75,315.52c0,.06-.59,0-1.3-.57a3.82,3.82,0,0,1,.13-6.14c.74-.53,1.32-.57,1.33-.51s-.49.24-1.1.8a3.9,3.9,0,0,0-1.32,2.76,4,4,0,0,0,1.2,2.82C353.28,315.25,353.79,315.44,353.75,315.52Z" style="fill:#263238"></path><path d="M358.11,315.52c0,.06-.59,0-1.31-.57a3.82,3.82,0,0,1,.13-6.14c.74-.53,1.32-.57,1.33-.51s-.49.24-1.1.8a3.72,3.72,0,0,0-.12,5.58C357.63,315.25,358.14,315.44,358.11,315.52Z" style="fill:#263238"></path><path d="M362.46,315.52c0,.06-.59,0-1.31-.57a3.82,3.82,0,0,1,.13-6.14c.74-.53,1.32-.57,1.33-.51s-.49.24-1.1.8a3.72,3.72,0,0,0-.12,5.58C362,315.25,362.49,315.44,362.46,315.52Z" style="fill:#263238"></path><path d="M366.81,315.52c0,.06-.59,0-1.31-.57a3.82,3.82,0,0,1,.13-6.14c.74-.53,1.33-.57,1.33-.51s-.48.24-1.1.8a3.72,3.72,0,0,0-.12,5.58C366.33,315.25,366.84,315.44,366.81,315.52Z" style="fill:#263238"></path><rect x="309.05" y="303.53" width="66.82" height="4.7" style="fill:#e0e0e0"></rect><path d="M375.88,308.23a1.92,1.92,0,0,1,0-.31c0-.22,0-.52,0-.89,0-.81,0-2,0-3.5l.09.1c-9.92.09-36.11.17-66.82.17h0c.11-.12-.27.25.26-.27h0v1.19c0,.4,0,.79,0,1.19v2.3l-.26-.26,47.33.11,14.24.08,3.88,0,1,0h.36a1.19,1.19,0,0,1-.33,0l-1,0-3.82,0-14.18.07-47.52.11h-.26v-4.94h0c.52-.52.15-.14.27-.26h0c30.71,0,56.9.07,66.82.17H376v.09c0,1.55,0,2.73-.05,3.55l0,.87A2.39,2.39,0,0,1,375.88,308.23Z" style="fill:#263238"></path></g><g id="freepik--lunch-box--inject-6"><path d="M344.37,436.79c-.11-2.14-.11-4-.09-5.75,0-1,0-2.6.05-3.9a.56.56,0,0,0-.16-.41.55.55,0,0,0-.4-.16h0c-1.4,0-3.11,0-3.85,0-2.92-.05-7.5-.07-11.68-.05a.56.56,0,0,0-.56.56v.59l.47,8.85-3,.16-.48-9.6a3.57,3.57,0,0,1,3.55-3.56c4.2,0,8.81,0,11.75.05.72,0,2.39,0,3.76,0a3.67,3.67,0,0,1,2.57,1.05,3.53,3.53,0,0,1,1,2.57c0,1.29,0,2.89-.05,3.88,0,1.67,0,3.51.09,5.56Z" style="fill:#263238"></path><rect x="305.24" y="431.76" width="62.53" height="45.53" rx="3.57" style="fill:#003366"></rect><path d="M361,477.19c-.14,0-.26-10.15-.26-22.66s.12-22.67.26-22.67.26,10.15.26,22.67S361.1,477.19,361,477.19Z" style="fill:#263238"></path><path d="M348.49,457.73a14.14,14.14,0,0,0-4.85-2.28c2-.08,3.41-1.76,4.21-3.57a6.22,6.22,0,0,0-.34-5.68,6,6,0,0,0-5.14-2.16c-1.74.23-5.19,2.28-5.36,4a4,4,0,0,0-1.67-3.18c-2.43-1.7-6-2-8.29-.1s-2.54,6-.12,7.69h0a15.83,15.83,0,0,0-5.23,0c-2.83.64-5.51,3.1-3.77,7a.22.22,0,0,0,.05.08c2,3.15,5.82,3.4,8.89,2.26a6.8,6.8,0,1,0,13,1c2.26,1.85,5,3.41,8.14,2.3h0C351.72,463.08,350.65,459.52,348.49,457.73Z" style="fill:#fafafa"></path><path d="M338.18,455.94a3.18,3.18,0,1,1-3.18-3.17A3.18,3.18,0,0,1,338.18,455.94Z" style="fill:#003366"></path><path d="M322.09,441.64a5.11,5.11,0,0,0-1.7-.8,1.86,1.86,0,0,0,1.48-1.25,2.2,2.2,0,0,0-.12-2,2.11,2.11,0,0,0-1.81-.76c-.62.08-1.87.84-1.88,1.47a1.4,1.4,0,0,0-.58-1.17,2.49,2.49,0,0,0-2.91,0,1.78,1.78,0,0,0,0,2.7,5.12,5.12,0,0,0-1.83,0,1.93,1.93,0,0,0-1.41,1.07,1.78,1.78,0,0,0,.83,2.1,2.89,2.89,0,0,0,2.39.09,2.38,2.38,0,1,0,4.56.36,3.7,3.7,0,0,0,1.94.93,1.49,1.49,0,0,0,1.08-2.72Z" style="fill:#fafafa"></path><path d="M318.48,441a1.12,1.12,0,1,1-1.12-1.12A1.12,1.12,0,0,1,318.48,441Z" style="fill:#003366"></path></g><g id="freepik--speech-bubble-1--inject-6"><path d="M325.28,92.23l4.53-7.71a28.5,28.5,0,1,1,5,8.91v0Z" style="fill:#fff"></path><path d="M325.28,92.23l.64.06,1.84.21,7,.83-.12.16h0a.1.1,0,0,1,.05-.15.12.12,0,0,1,.14,0,28.39,28.39,0,0,0,11.25,8.22,27.81,27.81,0,0,0,8.81,2A28.17,28.17,0,0,0,372.39,52a28.71,28.71,0,0,0-12.1-4.56,28.07,28.07,0,0,0-12.13,1.12,28.28,28.28,0,0,0-18.24,35.9.13.13,0,0,1,0,.09l-3.41,5.67c-.39.64-.68,1.13-.9,1.48s-.32.51-.32.51.08-.16.27-.49l.84-1.47c.76-1.34,1.88-3.28,3.33-5.81v.09a28.18,28.18,0,0,1-1.15-14A28.65,28.65,0,0,1,360.35,47a29.16,29.16,0,0,1,12.33,4.62,28.34,28.34,0,0,1,9.26,10.19,28.64,28.64,0,0,1-16.79,41,28.25,28.25,0,0,1-10.25,1.17,27.78,27.78,0,0,1-8.92-2,28.45,28.45,0,0,1-11.3-8.4l.19-.11h0a.11.11,0,0,1-.06.15h-.06l-7.1-1-1.79-.26C325.47,92.27,325.28,92.23,325.28,92.23Z" style="fill:#263238"></path><path d="M349.17,75.4a2.7,2.7,0,1,1-2.7-2.7A2.7,2.7,0,0,1,349.17,75.4Z" style="fill:#263238"></path><path d="M360,75.4a2.7,2.7,0,1,1-2.7-2.7A2.7,2.7,0,0,1,360,75.4Z" style="fill:#263238"></path><path d="M370.76,74.05a2.7,2.7,0,1,1-3.69-1A2.69,2.69,0,0,1,370.76,74.05Z" style="fill:#263238"></path></g></svg>